<?xml version="1.0" standalone="no"?>
<!DOCTYPE svg PUBLIC "-//W3C//DTD SVG 1.1//EN" "http://www.w3.org/Graphics/SVG/1.1/DTD/svg11.dtd">
<svg xmlns:xlink="http://www.w3.org/1999/xlink" xmlns="http://www.w3.org/2000/svg" viewBox="0 0 575 575" class="roots-wrapper" width="575" height="575"><g transform="rotate(0 0 0)"><svg xmlns="http://www.w3.org/2000/svg" xmlns:xlink="http://www.w3.org/1999/xlink" viewBoxSize="575" data-root-id="1928263588714" version="1.1" id="xxxx_1" x="90" y="162.721" viewBox="61.70000457763672 91.59999084472656 210.98757934570312 133.3000030517578" xml:space="preserve" height="249.55735535425927" width="394.99999999999994" preserveAspectRatio="xMinYMin" zoom="1" editorType="buyer" data-layer-role="icon" style="position: absolute; height: 249.557px; width: 395px; top: 162.721px; left: 90px;"><path class="st0" d="M223.5,91.6L223.5,91.6c0,0.1-0.1,0.1-0.1,0.2c-1.2,1.9-11,17.6-10.6,30.2l-2.7,3.4       c-3.1,3.9-7.9,6.2-12.9,6.2h-32l27-33.8c3.1-3.9,7.9-6.2,12.9-6.2H223.5z" name="Layer %{number}" zoom="1" data-layer-id="2652439888715" style="fill-opacity: 1;" fill="#1D4ED8"/><path class="st1" d="M105.3,168.5c-4.8-6-4.8-14.6,0-20.6l45-56.3h-32c-5,0-9.7,2.3-12.9,6.2l-40.1,50.1       c-4.8,6-4.8,14.6,0,20.6l34.8,43.5l19.8-24.8c-0.2-0.5-0.5-1-0.8-1.5L105.3,168.5z" name="Layer %{number}" zoom="1" data-layer-id="2824392988715" style="fill-opacity: 1;" fill="#1E293B"/><path class="st0" d="M194.3,144.4l-59,73.7c-3.1,3.9-7.9,6.2-12.9,6.2h-4.3c-2.4,0-4.8-0.5-7-1.5c-2.5-1.1-4.7-2.8-6.4-4.9       l-4.6-5.8l19.8-24.8l29.4-36.8c3.1-3.9,7.9-6.2,12.9-6.2H194.3z" name="Layer %{number}" zoom="1" data-layer-id="6561406488715" style="fill-opacity: 1;" fill="#3B82F6"/><path class="st1" d="M269.1,168.5L229,218.7c-3.1,3.9-7.9,6.2-12.9,6.2h-32l45-56.3c4.8-6,4.8-14.6,0-20.6l-14-17.5       c-1.6-2.5-2.3-5.4-2.4-8.5c-0.4-12.6,9.4-28.3,10.6-30.2c0,0,0.1-0.1,0.1-0.1l0,0h0.6l45,56.3       C273.9,154,273.9,162.5,269.1,168.5z" name="Layer %{number}" zoom="1" data-layer-id="8248248288715" style="fill-opacity: 1;" fill="#1E293B"/><path class="st2" d="M212.8,122c0,0-1.6-9.4,10.7-30.3c0,0-20.2,17.3-20.2,38.7C203.3,130.4,207.5,129.4,212.8,122z" name="Layer %{number}" zoom="1" data-layer-id="4486765488715" style="fill-opacity: 1;" fill="#1D4ED8"/><path class="st3" d="M100.2,212.1c0,0,18.1-21.3,5.1-43.5l13.9,17.3c0,0,0.6,0.8,0.8,1.5L100.2,212.1z" name="Layer %{number}" zoom="1" data-layer-id="6026653988715" style="fill-opacity: 1;" fill="#020617"/><path class="st2" d="M135.3,218.1c0,0,27-33.5,27-73.7h32L135.3,218.1z" name="Layer %{number}" zoom="1" data-layer-id="0846114488715" style="fill-opacity: 1;" fill="#1D4ED8"/></svg></g><g transform="rotate(0 0 0)"><svg xmlns="http://www.w3.org/2000/svg" viewBoxSize="575" data-root-id="5373324188715" y="355.6999969482422" viewBox="0 0 0 0" x="287.50165985107424" fontUrl="http://fonts.gstatic.com/s/roboto/v30/KFOmCnqEu92Fr1Me5WZLCzYlKw.ttf" zoom="1" editorType="buyer" data-layer-role="slogan" style="position: absolute; top: 355.7px; width: 0px; height: 0px; left: 287.502px;"><g data-horizontal-grow="center" zoom="1" root="[object Object]" style="fill-opacity: 1;" fill="#25B4E8"><path d="" transform="translate(0, 0)" fill="#25B4E8"/></g></svg></g><g transform="rotate(0 0 0)"><svg xmlns="http://www.w3.org/2000/svg" viewBoxSize="575" data-root-id="0760111788715" y="387.772" viewBox="0 0 0 0" x="287.50498962402344" fontUrl="http://fonts.gstatic.com/s/lato/v23/S6uyw4BMUTPHvxk6XweuBCY.ttf" zoom="1" editorType="buyer" data-layer-role="brandName" style="position: absolute; top: 387.772px; width: 0px; height: 0px; left: 287.505px;"><g data-horizontal-grow="center" zoom="1" root="[object Object]" style="" fill="#FFFFFF"><path d="" transform="translate(0, 0)" fill="#FFFFFF"/></g></svg></g></svg>